# xmcd CD database file
#
# Track frame offsets:
#	150
#	16051
#	31341
#	46869
#	62160
#	76781
#	90493
#	105153
#	120083
#	133495
#	148540
#	161789
#	176179
#	189701
#	205044
#	216696
#	231689
#	245302
#
# Disc length: 3461 seconds
#
# Revision: 0
# Processed by: cddbd v1.5.1PL0 Copyright (c) Steve Scherf et al.
# Submitted via: CDex 1.51
#
DISCID=f80d8312
DTITLE=Louis Armstrong - Louis Armstrong
DYEAR=1900
DGENRE=Jazz
TTITLE0=I Cant^t Give You Anything But Love
TTITLE1=Georgia On My Mind
TTITLE2=West End Blues
TTITLE3=Basin Street Blues
TTITLE4=Tiger Rag
TTITLE5=Struttin' With Some Barbecue
TTITLE6=Wild Man Blues
TTITLE7=Ain^t Misbehavin´
TTITLE8=You Rascal, You
TTITLE9=Body And Soul
TTITLE10=On The Sunny Side of The Street
TTITLE11=Mahagony Hall Stomp
TTITLE12=Solitude
TTITLE13=High Society
TTITLE14=Alexander´s Rag Time Band
TTITLE15=Twelve Street Rag
TTITLE16=ST. Louis Blues
TTITLE17=Savoy Blues
EXTD=
EXTT0=
EXTT1=
EXTT2=
EXTT3=
EXTT4=
EXTT5=
EXTT6=
EXTT7=
EXTT8=
EXTT9=
EXTT10=
EXTT11=
EXTT12=
EXTT13=
EXTT14=
EXTT15=
EXTT16=
EXTT17=
PLAYORDER=
